<svg xmlns="http://www.w3.org/2000/svg" viewBox="0 0 36 36"><circle fill="#000" cx="18" cy="18" r="17"/><circle fill="none" stroke="#00FF00" stroke-width="2" cx="18" cy="18" r="14"/><circle fill="none" stroke="#00FF00" stroke-width="1" cx="18" cy="18" r="11"/><path fill="#00FF00" d="M12 14c-2.2 0-4 1.8-4 4s1.8 4 4 4c1.1 0 2.1-.4 2.8-1.2l-1.4-1.4c-.4.4-.9.6-1.4.6-1.1 0-2-.9-2-2s.9-2 2-2c.5 0 1 .2 1.4.6l1.4-1.4c-.7-.8-1.7-1.2-2.8-1.2z"/><path fill="#00FF00" d="M18 14c-2.2 0-4 1.8-4 4s1.8 4 4 4c1.1 0 2.1-.4 2.8-1.2l-1.4-1.4c-.4.4-.9.6-1.4.6-1.1 0-2-.9-2-2s.9-2 2-2c.5 0 1 .2 1.4.6l1.4-1.4c-.7-.8-1.7-1.2-2.8-1.2z"/><path fill="#00FF00" d="M24 14c-2.2 0-4 1.8-4 4s1.8 4 4 4c1.1 0 2.1-.4 2.8-1.2l-1.4-1.4c-.4.4-.9.6-1.4.6-1.1 0-2-.9-2-2s.9-2 2-2c.5 0 1 .2 1.4.6l1.4-1.4c-.7-.8-1.7-1.2-2.8-1.2z"/></svg>
