<svg xmlns="http://www.w3.org/2000/svg" viewBox="0 0 36 36"><path fill="#D99E82" d="M6 20c0 6.075 4.925 11 11 11h2c6.075 0 11-4.925 11-11V9H6v11z"/><path fill="#F5F8FA" d="M8 20c0 4.971 4.029 9 9 9h2c4.971 0 9-4.029 9-9v-9H8v9z"/><path fill="#CCD6DD" d="M28 11v9c0 4.971-4.029 9-9 9h-2c-4.971 0-9-4.029-9-9v-9h-2v9c0 6.075 4.925 11 11 11h2c6.075 0 11-4.925 11-11v-9h-2z"/><path fill="#662113" d="M13 20c0-2.209 1.791-4 4-4s4 1.791 4 4-1.791 4-4 4-4-1.791-4-4z"/><path fill="#00FF00" d="M17 16c-2.209 0-4 1.791-4 4s1.791 4 4 4 4-1.791 4-4-1.791-4-4-4zm0 6c-1.104 0-2-.896-2-2s.896-2 2-2 2 .896 2 2-.896 2-2 2z"/><path fill="#99AAB5" d="M32 12c0-1.104-.896-2-2-2h-2v4h2c1.104 0 2-.896 2-2z"/></svg>
