<svg xmlns="http://www.w3.org/2000/svg" viewBox="0 0 36 36">
  <rect fill="#66757F" x="2" y="8" width="32" height="24" rx="2"/>
  <rect fill="#292F33" x="4" y="10" width="6" height="6"/>
  <rect fill="#292F33" x="11" y="10" width="6" height="6"/>
  <rect fill="#292F33" x="18" y="10" width="6" height="6"/>
  <rect fill="#292F33" x="25" y="10" width="6" height="6"/>
  <rect fill="#292F33" x="4" y="17" width="6" height="6"/>
  <rect fill="#292F33" x="11" y="17" width="6" height="6"/>
  <rect fill="#292F33" x="18" y="17" width="6" height="6"/>
  <rect fill="#292F33" x="25" y="17" width="6" height="6"/>
  <rect fill="#292F33" x="4" y="24" width="6" height="6"/>
  <rect fill="#292F33" x="11" y="24" width="6" height="6"/>
  <rect fill="#292F33" x="18" y="24" width="6" height="6"/>
  <rect fill="#292F33" x="25" y="24" width="6" height="6"/>
  <path fill="#F4900C" d="M18 2c-3 0-5 4-5 8 0 3 2 5 3 6-1 1-1 2-1 3 0 2 1.5 3 3 3s3-1 3-3c0-1 0-2-1-3 1-1 3-3 3-6 0-4-2-8-5-8z"/>
  <path fill="#FFCC4D" d="M18 4c-2 0-3 3-3 6 0 2 1 3 2 4 0 1 1 2 1 2s1-1 1-2c1-1 2-2 2-4 0-3-1-6-3-6z"/>
</svg>
