<svg xmlns="http://www.w3.org/2000/svg" viewBox="0 0 36 36"><circle fill="#A0522D" cx="18" cy="18" r="14"/><ellipse fill="#D2691E" cx="18" cy="20" rx="10" ry="8"/><ellipse fill="#000" cx="13" cy="14" rx="2" ry="3"/><ellipse fill="#000" cx="23" cy="14" rx="2" ry="3"/><ellipse fill="#FFF" cx="13.5" cy="13.5" rx="0.8" ry="1"/><ellipse fill="#FFF" cx="23.5" cy="13.5" rx="0.8" ry="1"/><path fill="#8B4513" d="M8 10c-2-4 0-8 4-8 2 0 3 1 4 2-2 0-4 2-4 4l-4 2z"/><path fill="#8B4513" d="M28 10c2-4 0-8-4-8-2 0-3 1-4 2 2 0 4 2 4 4l4 2z"/><ellipse fill="#666" cx="18" cy="22" rx="4" ry="3"/><path fill="#444" d="M16 22c0 0 1 2 2 2s2-2 2-2"/></svg>
