<svg xmlns="http://www.w3.org/2000/svg" viewBox="0 0 36 36"><path fill="#000" d="M29 22c0 6.627-5.373 12-12 12S5 28.627 5 22c0-3 1-6 3-8l2-10 4 6h8l4-6 2 10c2 2 3 5 3 8z"/><ellipse fill="#00FF00" cx="12" cy="20" rx="3" ry="4"/><ellipse fill="#00FF00" cx="24" cy="20" rx="3" ry="4"/><ellipse fill="#000" cx="12" cy="20" rx="1.5" ry="2"/><ellipse fill="#000" cx="24" cy="20" rx="1.5" ry="2"/><path fill="#00FF00" d="M15 26c0 0 1.5 2 3 2s3-2 3-2"/><path fill="none" stroke="#00FF00" stroke-width="0.5" d="M8 22h-4M8 24h-4M28 22h4M28 24h4"/></svg>
