<svg xmlns="http://www.w3.org/2000/svg" viewBox="0 0 36 36"><rect fill="#1A1A1A" x="2" y="2" width="32" height="32" rx="4"/><rect fill="#2D2D2D" x="4" y="4" width="12" height="10" rx="1"/><rect fill="#00FF00" x="5" y="5" width="10" height="8" opacity="0.8"/><text x="10" y="11" text-anchor="middle" fill="#000" font-family="monospace" font-size="4">&gt;_</text><rect fill="#444" x="18" y="4" width="14" height="8" rx="1"/><circle fill="#FF0000" cx="21" cy="8" r="1.5"/><circle fill="#00FF00" cx="25" cy="8" r="1.5"/><circle fill="#0066FF" cx="29" cy="8" r="1.5"/><rect fill="#333" x="4" y="16" width="28" height="4" rx="1"/><rect fill="#555" x="6" y="17" width="4" height="2"/><rect fill="#555" x="12" y="17" width="4" height="2"/><rect fill="#555" x="18" y="17" width="4" height="2"/><rect fill="#555" x="24" y="17" width="6" height="2"/><path fill="#00FF00" d="M8 24l4 8H4z"/><circle fill="#FFD700" cx="20" cy="28" r="4"/><path fill="#FF6600" d="M28 24c0 0 2 4 4 4s-2 4-4 4-4-4-4-4 2-4 4-4z"/></svg>
