<svg xmlns="http://www.w3.org/2000/svg" viewBox="0 0 36 36">
  <circle fill="#292F33" cx="18" cy="18" r="17"/>
  <path fill="#66757F" d="M18 4c-7.732 0-14 6.268-14 14s6.268 14 14 14 14-6.268 14-14S25.732 4 18 4zm0 26c-6.627 0-12-5.373-12-12S11.373 6 18 6s12 5.373 12 12-5.373 12-12 12z"/>
  <circle fill="#00ff00" cx="12" cy="16" r="3"/>
  <circle fill="#00ff00" cx="24" cy="16" r="3"/>
  <rect fill="#00ff00" x="10" y="24" width="16" height="2" rx="1"/>
  <path fill="none" stroke="#00ff00" stroke-width="1.5" d="M8 13c0-3 2-5 4-5M28 13c0-3-2-5-4-5"/>
</svg>
