<svg xmlns="http://www.w3.org/2000/svg" viewBox="0 0 36 36">
  <rect fill="#292F33" x="1" y="10" width="34" height="18" rx="2"/>
  <rect fill="#66757F" x="3" y="12" width="4" height="3" rx="0.5"/>
  <rect fill="#66757F" x="8" y="12" width="4" height="3" rx="0.5"/>
  <rect fill="#66757F" x="13" y="12" width="4" height="3" rx="0.5"/>
  <rect fill="#66757F" x="18" y="12" width="4" height="3" rx="0.5"/>
  <rect fill="#66757F" x="23" y="12" width="4" height="3" rx="0.5"/>
  <rect fill="#66757F" x="28" y="12" width="5" height="3" rx="0.5"/>
  <rect fill="#66757F" x="3" y="16" width="4" height="3" rx="0.5"/>
  <rect fill="#66757F" x="8" y="16" width="4" height="3" rx="0.5"/>
  <rect fill="#66757F" x="13" y="16" width="4" height="3" rx="0.5"/>
  <rect fill="#66757F" x="18" y="16" width="4" height="3" rx="0.5"/>
  <rect fill="#66757F" x="23" y="16" width="4" height="3" rx="0.5"/>
  <rect fill="#66757F" x="28" y="16" width="5" height="3" rx="0.5"/>
  <rect fill="#00ff00" x="3" y="20" width="5" height="3" rx="0.5"/>
  <rect fill="#66757F" x="9" y="20" width="18" height="3" rx="0.5"/>
  <rect fill="#00ff00" x="28" y="20" width="5" height="3" rx="0.5"/>
</svg>
