<svg xmlns="http://www.w3.org/2000/svg" viewBox="0 0 36 36"><ellipse fill="#000" cx="18" cy="20" rx="10" ry="12"/><ellipse fill="#FFF" cx="18" cy="18" rx="8" ry="9"/><ellipse fill="#000" cx="14" cy="15" rx="2" ry="2.5"/><ellipse fill="#000" cx="22" cy="15" rx="2" ry="2.5"/><ellipse fill="#FFF" cx="14.5" cy="14.5" rx="0.8" ry="1"/><ellipse fill="#FFF" cx="22.5" cy="14.5" rx="0.8" ry="1"/><path fill="#F4900C" d="M18 19c-1 0-2 0.5-2 1.5s1 2 2 2 2-1 2-2-1-1.5-2-1.5z"/><path fill="#000" d="M12 26c-2 2-4 4-5 4s-1-1 0-2 3-3 4-4M24 26c2 2 4 4 5 4s1-1 0-2-3-3-4-4"/></svg>
