<svg xmlns="http://www.w3.org/2000/svg" viewBox="0 0 36 36">
  <path fill="#000" d="M4 8l4-6h20l4 6v24c0 2-2 4-4 4H8c-2 0-4-2-4-4V8z"/>
  <path fill="#1a1a1a" d="M6 10h24v22c0 1-1 2-2 2H8c-1 0-2-1-2-2V10z"/>
  <polygon fill="#00ff00" points="8,2 12,10 4,10"/>
  <polygon fill="#00ff00" points="28,2 32,10 24,10"/>
  <circle fill="#00ff00" cx="13" cy="18" r="4"/>
  <circle fill="#00ff00" cx="23" cy="18" r="4"/>
  <circle fill="#000" cx="13" cy="18" r="2"/>
  <circle fill="#000" cx="23" cy="18" r="2"/>
  <ellipse fill="#00ff00" cx="18" cy="24" rx="2" ry="1"/>
  <path fill="none" stroke="#00ff00" stroke-width="1" d="M16 26c1 1 3 1 4 0"/>
  <path fill="none" stroke="#00ff00" stroke-width="0.5" d="M6 20h-4M6 22h-3M30 20h4M30 22h3"/>
</svg>
