<svg xmlns="http://www.w3.org/2000/svg" viewBox="0 0 36 36">
  <circle fill="#FFCC4D" cx="18" cy="18" r="17"/>
  <path fill="#664500" d="M10.5 17c0 1.657-1.343 3-3 3s-3-1.343-3-3 1.343-3 3-3 3 1.343 3 3zm21 0c0 1.657-1.343 3-3 3s-3-1.343-3-3 1.343-3 3-3 3 1.343 3 3z"/>
  <rect fill="#292F33" x="4" y="14" width="28" height="6" rx="3"/>
  <circle fill="#fff" cx="11" cy="17" r="4"/>
  <circle fill="#664500" cx="11" cy="17" r="2"/>
  <circle fill="#fff" cx="25" cy="17" r="4"/>
  <circle fill="#664500" cx="25" cy="17" r="2"/>
  <rect fill="#292F33" x="15" y="15" width="6" height="4"/>
  <path fill="#664500" d="M18 28c-4 0-6-2-6-2s2 4 6 4 6-4 6-4-2 2-6 2z"/>
</svg>
