<svg xmlns="http://www.w3.org/2000/svg" viewBox="0 0 36 36"><circle fill="#1A1A2E" cx="18" cy="18" r="16"/><path fill="#4A4A6A" d="M8 20c0 5.5 4.5 10 10 10s10-4.5 10-10c0-4-2.4-7.4-5.8-9 1.2 1.5 2 3.4 2 5.5 0 4.7-3.8 8.5-8.5 8.5S7.2 21.2 7.2 16.5c0-2.1.8-4 2-5.5C6 13 4 16.3 4 20h4z"/><circle fill="#FFD700" cx="13" cy="16" r="4"/><circle fill="#FFD700" cx="23" cy="16" r="4"/><circle fill="#000" cx="13" cy="16" r="2"/><circle fill="#000" cx="23" cy="16" r="2"/><path fill="#F4900C" d="M18 20l-2 3h4z"/></svg>
